#!OML:ASF I:\golf\golf\golf 2\Subject 1\2002-09-07\Subject1.ASF
:FULLY-SPECIFIED
:DEGREES
200
root -7.61566 17.7716 3.07959 5.73807 46.985 -11.4971
lowerback 3.33005 -10.978 -12.3141
upperback -0.0225687 -15.0048 -0.848155
thorax 1.00139 -7.49778 5.69583
lowerneck -7.92625 20.9728 0.127841
upperneck 11.2284 31.0093 -16.1818
head 7.40671 13.8294 -1.86894
rclavicle -6.75868e-014 -2.54444e-014
rhumerus 27.2002 -21.8026 -61.9457
rradius 109.887
rwrist 14.932
rhand -61.4322 71.065
rfingers 7.12502
rthumb -33.5142 44.1747
lclavicle -6.75868e-014 -2.54444e-014
lhumerus 109.255 -41.02 46.6068
lradius 33.9751
lwrist -27.4019
lhand 132.3 169.122
lfingers 7.12502
lthumb -200.38 198.072
rfemur -35.0497 19.841 22.4881
rtibia 33.2729
rfoot -9.63642 17.8941
rtoes 23.4277
lfemur -1.07894 7.19418 2.36319
ltibia 18.4612
lfoot -10.9644 26.7054
ltoes -16.3558
201
root -7.6089 17.7765 3.09861 5.79363 46.759 -11.4073
lowerback 3.24892 -10.9018 -12.2266
upperback -0.079837 -14.8899 -1.09875
thorax 0.874504 -7.42508 5.40841
lowerneck -7.57221 20.9416 0.985544
upperneck 11.5624 30.9532 -16.2115
head 7.5844 13.8188 -1.9752
rclavicle 8.36883e-014 -6.67916e-014
rhumerus 26.7585 -22.5941 -61.333
rradius 109.95
rwrist 15.611
rhand -61.717 72.6334
rfingers 7.12502
rthumb -33.7848 45.8022
lclavicle 8.36883e-014 -6.67916e-014
lhumerus 109.687 -41.4526 46.4512
lradius 34.1457
lwrist -27.6528
lhand 132.049 168.502
lfingers 7.12502
lthumb -200.622 197.427
rfemur -34.9076 19.9032 22.5197
rtibia 33.1864
rfoot -9.6455 18.0545
rtoes 23.4271
lfemur -1.1123 7.39973 2.36975
ltibia 18.6388
lfoot -10.3738 26.9094
ltoes -17.4417
202
root -7.60311 17.7809 3.11679 5.72845 46.4829 -11.4281
lowerback 3.19671 -10.6061 -11.9786
upperback -0.206066 -14.4872 -1.59707
thorax 0.506781 -7.18968 4.84032
lowerneck -6.6614 20.7085 2.7849
upperneck 12.0235 30.577 -16.3642
head 7.8414 13.71 -2.2979
rclavicle 9.42239e-014 -4.13472e-014
rhumerus 25.449 -23.7781 -60.4658
rradius 110.161
rwrist 16.251
rhand -62.4592 73.1842
rfingers 7.12502
rthumb -34.4898 46.5105
lclavicle 9.42239e-014 -4.13472e-014
lhumerus 110.529 -42.4749 45.7049
lradius 34.4624
lwrist -27.4951
lhand 132.036 168.077
lfingers 7.12502
lthumb -200.634 197
rfemur -34.7134 19.8946 22.692
rtibia 33.0826
rfoot -9.5416 18.377
rtoes 23.7486
lfemur -1.11608 7.61623 2.48705
ltibia 18.9076
lfoot -10.0421 26.994
ltoes -17.9151
203
root -7.59855 17.7789 3.13138 5.6139 46.2334 -11.4877
lowerback 3.33023 -10.9207 -12.0255
upperback -0.0650012 -14.922 -1.05426
thorax 0.813673 -7.44046 5.37082
lowerneck -7.81202 21.1007 0.662081
upperneck 11.5188 31.2115 -16.2412
head 7.59061 13.9126 -1.89396
rclavicle 8.84592e-014 4.77083e-014
rhumerus 27.0406 -23.3302 -60.0953
rradius 110.1
rwrist 16.8895
rhand -62.9184 73.1247
rfingers 7.12502
rthumb -34.9255 46.5513
lclavicle 8.84592e-014 4.77083e-014
lhumerus 109.923 -41.2159 46.7784
lradius 34.6503
lwrist -28.1626
lhand 131.761 167.759
lfingers 7.12502
lthumb -200.898 196.654
rfemur -34.518 19.9739 22.8557
rtibia 32.974
rfoot -9.48098 18.5424
rtoes 23.776
lfemur -1.03112 7.765 2.6301
ltibia 19.2344
lfoot -10.288 26.7105
ltoes -17.2894
204
root -7.59383 17.7765 3.14424 5.51809 46.0249 -11.5724
lowerback 3.24495 -10.6376 -11.8413
upperback -0.143509 -14.53 -1.46301
thorax 0.555917 -7.22007 4.90594
lowerneck -6.32825 20.8289 2.28354
upperneck 10.987 30.6311 -16.8565
head 7.46077 13.7944 -2.4586
rclavicle 3.79679e-014 -2.8625e-014
rhumerus 25.6999 -24.3882 -59.1652
rradius 110.261
rwrist 17.5193
rhand -63.1151 74.0085
rfingers 7.12502
rthumb -35.1121 47.4787
lclavicle 3.79679e-014 -2.8625e-014
lhumerus 110.482 -42.3946 46.4558
lradius 34.993
lwrist -28.6015
lhand 131.365 167.467
lfingers 7.12502
lthumb -201.279 196.319
rfemur -34.3836 20.1078 22.9849
rtibia 32.8948
rfoot -9.47553 18.6365
rtoes 23.5971
lfemur -1.12964 7.96369 2.74871
ltibia 19.5479
lfoot -9.57309 26.9024
ltoes -18.6697
205
root -7.59296 17.7778 3.15502 5.56966 45.7965 -11.5583
lowerback 3.26898 -10.7319 -11.9155
upperback -0.21326 -14.668 -1.34512
thorax 0.541074 -7.28736 5.06099
lowerneck -6.3298 20.9605 2.06444
upperneck 10.8566 30.825 -16.9741
head 7.42612 13.8796 -2.44717
rclavicle 1.66582e-013 3.81667e-014
rhumerus 25.8146 -24.3793 -58.6323
rradius 110.204
rwrist 18.2714
rhand -63.6381 75.045
rfingers 7.12502
rthumb -35.608 48.6331
lclavicle 1.66582e-013 3.81667e-014
lhumerus 110.273 -42.147 46.876
lradius 35.2055
lwrist -28.8707
lhand 131.24 166.897
lfingers 7.12502
lthumb -201.398 195.735
rfemur -34.4004 20.2774 22.998
rtibia 32.8879
rfoot -9.44896 18.7423
rtoes 23.7751
lfemur -1.26497 8.19995 2.77963
ltibia 19.7509
lfoot -8.51196 27.1876
ltoes -20.8133
206
root -7.59401 17.778 3.16482 5.79321 45.5496 -11.292
lowerback 3.32322 -10.7358 -12.1337
upperback -0.316884 -14.6954 -1.35621
thorax 0.455853 -7.29084 5.17665
lowerneck -6.23046 20.9706 2.16231
upperneck 10.9192 30.8726 -17.114
head 7.47474 13.8943 -2.49196
rclavicle -7.51406e-014 2.54444e-014
rhumerus 25.5811 -24.5465 -57.9974
rradius 110.252
rwrist 18.6966
rhand -64.1173 76.141
rfingers 7.12502
rthumb -36.0621 49.8397
lclavicle -7.51406e-014 2.54444e-014
lhumerus 110.468 -41.883 46.7315
lradius 35.6019
lwrist -28.3167
lhand 131.688 166.562
lfingers 7.12502
lthumb -200.969 195.448
rfemur -34.4718 20.4655 22.8079
rtibia 32.9372
rfoot -9.36627 18.8156
rtoes 24.2892
lfemur -1.13603 8.57927 2.62155
ltibia 19.8787
lfoot -7.95605 26.835
ltoes -22.4406
207
root -7.58782 17.7773 3.17711 6.01395 45.3832 -10.9407
lowerback 3.33506 -10.7174 -12.2974
upperback -0.367337 -14.6802 -1.45269
thorax 0.407028 -7.27551 5.16947
lowerneck -6.03899 20.9275 2.49129
upperneck 10.9702 30.8618 -17.4372
head 7.56559 13.8825 -2.62216
rclavicle 1.20662e-013 2.8625e-014
rhumerus 25.2449 -24.8476 -57.2682
rradius 110.382
rwrist 18.7348
rhand -64.1092 77.1938
rfingers 7.12502
rthumb -36.0544 50.8907
lclavicle 1.20662e-013 2.8625e-014
lhumerus 110.701 -41.7946 46.5753
lradius 35.9289
lwrist -28.0004
lhand 131.978 166.446
lfingers 7.12502
lthumb -200.69 195.363
rfemur -34.438 20.4254 22.6218
rtibia 33.0347
rfoot -9.29498 19.0822
rtoes 24.9588
lfemur -0.818206 9.20602 2.4077
ltibia 19.9119
lfoot -6.843 26.1462
ltoes -25.4205
